<?xml version="1.0" encoding="utf-8"?>
<!-- Generator: Adobe Illustrator 27.6.1, SVG Export Plug-In . SVG Version: 6.00 Build 0)  -->
<svg version="1.1" xmlns="http://www.w3.org/2000/svg" xmlns:xlink="http://www.w3.org/1999/xlink" x="0px" y="0px"
	 viewBox="0 0 1920 1080" style="enable-background:new 0 0 1920 1080;" xml:space="preserve">
<style type="text/css">
	.st0{fill:#2C2CFF;}
</style>
<g id="Layer_1">
	<g>
		<polygon points="1388,603.8 1343.12,603.8 1343.12,483.68 1244.52,483.68 1244.52,438.8 1388,438.8 		"/>
	</g>
	<g>
		<path d="M795.7,693.76v-44.88c33.47,0,89.63-12.88,89.63-99.15V438.78h44.88v110.95C930.21,655.92,860.73,693.76,795.7,693.76z"/>
	</g>
	<g>
		<path d="M792.49,603.78H638.38v-165h44.88v120.11h109c1-0.04,2.27-0.25,3.34-0.53l0-74.74h-67.37v-44.88h112.26v122.11
			C840.48,589.03,816.34,603.78,792.49,603.78z"/>
	</g>
	<g>
		<path d="M1154.88,603.8l-0.02-165.39c-0.08-5.39,0.36-40.91,25-66.14c14.9-15.26,35.7-23.32,60.15-23.32h50.98v44.88H1240
			c-12.33,0-21.45,3.15-27.88,9.64c-10.31,10.41-12.43,28.33-12.38,34.36l0.01,0.26l0,0.11l0.02,165.59L1154.88,603.8z"/>
	</g>
	<g>
		<rect x="1064.87" y="438.78" width="44.88" height="165.02"/>
	</g>
	<g>
		<rect x="975" y="438.78" width="44.88" height="165.02"/>
	</g>
	<g>
		<rect x="533.43" y="438.78" class="st0" width="60.08" height="60.08"/>
	</g>
	<g>
		<rect x="533.43" y="543.72" class="st0" width="60.08" height="60.08"/>
	</g>
</g>
<g id="Layer_2">
</g>
</svg>
